<!-- icon666.com - MILLIONS OF FREE VECTOR ICONS --><svg version="1.1" id="Capa_1" xmlns="http://www.w3.org/2000/svg" xmlns:xlink="http://www.w3.org/1999/xlink" x="0px" y="0px" viewBox="0 0 493.653 493.653" style="enable-background:new 0 0 493.653 493.653;" xml:space="preserve"><g><g><path d="M246.613,0C110.295,0.118-0.118,110.721,0,247.04c0.118,136.319,110.721,246.731,247.04,246.613 c136.235-0.118,246.613-110.591,246.613-246.826C493.418,110.522,382.918,0.117,246.613,0z M301.44,343.68h-2.773 c-3.501-0.066-6.756-1.813-8.747-4.693l-85.973-142.293v136.96c0,5.655-4.585,10.24-10.24,10.24 c-5.536,0.119-10.121-4.272-10.24-9.809c-0.003-0.144-0.003-0.287,0-0.431V159.787c0,0,0,0,0-1.28 c-0.078-0.709-0.078-1.424,0-2.133c-0.067-0.638-0.067-1.282,0-1.92v-1.707l1.28-1.067h2.133h1.92h2.133h1.493h1.92h1.707 c0.62,0.259,1.142,0.707,1.493,1.28l85.333,142.507v-135.68c0-5.655,4.585-10.24,10.24-10.24 c5.536-0.119,10.121,4.272,10.24,9.809c0.003,0.144,0.003,0.288,0,0.431l5.547,174.08 C309.04,338.488,305.93,342.576,301.44,343.68z" fill="#000000" style="fill: rgb(62, 44, 32);"></path></g></g></svg>