<?xml version="1.0" standalone="no"?>
<!DOCTYPE svg PUBLIC "-//W3C//DTD SVG 20010904//EN"
 "http://www.w3.org/TR/2001/REC-SVG-20010904/DTD/svg10.dtd">
<svg version="1.0" xmlns="http://www.w3.org/2000/svg"
 width="256.000000pt" height="256.000000pt" viewBox="0 0 256.000000 256.000000"
 preserveAspectRatio="xMidYMid meet">

<g transform="translate(0.000000,256.000000) scale(0.100000,-0.100000)"
fill="#000000" stroke="none">
<path d="M1472 2224 c-87 -43 -135 -124 -136 -224 -1 -95 23 -131 202 -312
l156 -158 -542 0 -542 0 0 -250 0 -250 542 0 542 0 -156 -157 c-179 -182 -202
-218 -202 -313 0 -144 107 -250 252 -250 105 0 119 11 549 442 373 375 392
396 407 447 20 68 20 94 0 162 -15 51 -34 72 -407 448 -432 434 -441 441 -553
441 -45 0 -73 -7 -112 -26z"/>
<path d="M405 1518 c-3 -7 -4 -119 -3 -248 l3 -235 25 0 25 0 0 245 0 245 -23
3 c-12 2 -24 -3 -27 -10z"/>
<path d="M274 1477 c-2 -7 -3 -100 -2 -207 3 -181 4 -195 22 -198 10 -2 22 2
27 10 10 15 12 368 3 392 -7 19 -43 21 -50 3z"/>
<path d="M140 1280 l0 -181 23 3 c22 3 22 4 22 178 0 174 0 175 -22 178 l-23
3 0 -181z"/>
<path d="M5 1418 c-3 -8 -4 -75 -3 -149 l3 -134 25 0 25 0 0 145 c0 143 0 145
-23 148 -12 2 -24 -3 -27 -10z"/>
</g>
</svg>
